<svg xmlns="http://www.w3.org/2000/svg" width="1024" height="150" viewBox="0 0 1024 150"><rect width="100%" height="100%" fill="#DDDDDD"/><path fill="#999999" d="M347.32 95.17h9.75v6.94h-30v-6.94h10.99V63.56q0-1.87.11-3.86l-7.8 6.52q-.68.53-1.33.66-.66.13-1.24.02t-1.03-.4q-.45-.28-.68-.62l-2.92-4.01 16.53-14.06h7.62zM403.38 75q0 7.09-1.52 12.32t-4.2 8.64-6.34 5.08q-3.65 1.67-7.89 1.67t-7.86-1.67-6.28-5.08-4.16-8.64-1.5-12.32q0-7.13 1.5-12.34t4.16-8.62q2.66-3.42 6.28-5.09 3.62-1.66 7.86-1.66t7.89 1.66q3.66 1.67 6.34 5.09 2.68 3.41 4.2 8.62T403.38 75m-9.56 0q0-5.89-.86-9.75-.87-3.87-2.31-6.15-1.44-2.29-3.32-3.21-1.87-.92-3.9-.92-1.99 0-3.84.92-1.86.92-3.28 3.21-1.43 2.28-2.27 6.15-.85 3.86-.85 9.75t.85 9.75q.84 3.86 2.27 6.15 1.42 2.29 3.28 3.2 1.85.92 3.84.92 2.03 0 3.9-.92 1.88-.91 3.32-3.2t2.31-6.15q.86-3.86.86-9.75m34.31 18.48h13.91q1.5 0 2.38.85.89.84.89 2.23v5.55H408.1v-3.07q0-.94.4-1.97.39-1.04 1.26-1.86l16.46-16.5q2.06-2.1 3.69-4.01t2.72-3.79q1.09-1.87 1.67-3.81.58-1.93.58-4.06 0-1.95-.56-3.44-.56-1.48-1.6-2.49-1.03-1.01-2.47-1.52-1.44-.5-3.24-.5-1.66 0-3.06.46-1.41.47-2.49 1.32-1.09.84-1.84 1.97-.75 1.12-1.13 2.47-.64 1.73-1.65 2.29t-2.92.26l-4.88-.86q.56-3.9 2.18-6.85 1.61-2.94 4.03-4.91t5.55-2.96 6.73-.99q3.75 0 6.86 1.1 3.12 1.11 5.33 3.13 2.21 2.03 3.45 4.88t1.24 6.33q0 3-.89 5.56-.88 2.55-2.36 4.87t-3.47 4.5q-1.98 2.18-4.16 4.43l-12.22 12.48q1.76-.52 3.5-.8 1.75-.29 3.32-.29m30.83-11.81h16.5V63.94q0-2.52.33-5.56zm24.56 0h6.82v5.37q0 .75-.48 1.29-.49.54-1.39.54h-4.95v13.24h-8.06V88.87h-22.88q-.94 0-1.65-.58t-.9-1.44l-.97-4.69 25.68-34.31h8.78zm66.41 8.03-4.91 4.84-12.71-12.72-12.83 12.79-4.91-4.84 12.82-12.86-12.22-12.22 4.87-4.88 12.23 12.23 12.15-12.16 4.95 4.88-12.19 12.19zm51.34 5.47h9.75v6.94h-30v-6.94H592V63.56q0-1.87.12-3.86l-7.8 6.52q-.68.53-1.33.66-.66.13-1.24.02t-1.03-.4q-.45-.28-.68-.62l-2.92-4.01 16.53-14.06h7.62zm31.57-38.88-1.91 11.28q1.8-.37 3.45-.54t3.19-.17q4.27 0 7.54 1.27 3.26 1.28 5.47 3.53t3.34 5.27q1.12 3.02 1.12 6.5 0 4.32-1.52 7.88t-4.22 6.09q-2.69 2.54-6.39 3.92-3.69 1.39-8.04 1.39-2.55 0-4.84-.53-2.29-.52-4.29-1.4-2.01-.88-3.72-2.03-1.7-1.14-3.05-2.41l2.85-3.94q.9-1.28 2.36-1.28.94 0 1.91.6.98.6 2.23 1.32 1.26.71 2.97 1.31 1.7.6 4.1.6 2.55 0 4.5-.83 1.95-.82 3.25-2.3 1.29-1.49 1.95-3.53.65-2.04.65-4.44 0-4.43-2.57-6.92-2.56-2.5-7.59-2.5-3.86 0-7.91 1.43l-5.78-1.65 4.5-26.33h26.78v3.94q0 1.99-1.24 3.23t-4.2 1.24zM700.83 75q0 7.09-1.52 12.32t-4.2 8.64-6.34 5.08q-3.65 1.67-7.89 1.67t-7.86-1.67-6.28-5.08-4.16-8.64-1.5-12.32q0-7.13 1.5-12.34t4.16-8.62q2.66-3.42 6.28-5.09 3.62-1.66 7.86-1.66t7.89 1.66q3.66 1.67 6.34 5.09 2.68 3.41 4.2 8.62T700.83 75m-9.56 0q0-5.89-.87-9.75-.86-3.87-2.3-6.15-1.45-2.29-3.32-3.21-1.88-.92-3.9-.92-1.99 0-3.84.92-1.86.92-3.28 3.21-1.43 2.28-2.27 6.15-.85 3.86-.85 9.75t.85 9.75q.84 3.86 2.27 6.15 1.42 2.29 3.28 3.2 1.85.92 3.84.92 2.02 0 3.9-.92 1.87-.91 3.32-3.2 1.44-2.29 2.3-6.15.87-3.86.87-9.75"/></svg>