<svg xmlns="http://www.w3.org/2000/svg" width="150" height="150" viewBox="0 0 150 150"><rect width="100%" height="100%" fill="#DDDDDD"/><path fill="#999999" d="M36.885 80.38h2.6v1.85h-8v-1.85h2.93v-8.43q0-.5.03-1.03l-2.08 1.74q-.18.14-.35.18-.18.03-.33 0-.16-.03-.28-.11-.12-.07-.18-.16l-.78-1.07 4.41-3.75h2.03zm8.42-10.37-.51 3.01q.48-.1.92-.15.44-.04.85-.04 1.14 0 2.01.34t1.46.94.89 1.41q.3.8.3 1.73 0 1.15-.4 2.1-.41.95-1.13 1.62-.72.68-1.7 1.05-.99.37-2.15.37-.68 0-1.29-.14t-1.14-.37q-.54-.24-.99-.55-.46-.3-.82-.64l.76-1.05q.24-.34.63-.34.25 0 .51.16t.6.35q.33.19.79.35.45.16 1.09.16.68 0 1.2-.22t.87-.62q.34-.39.52-.94.17-.54.17-1.18 0-1.18-.68-1.84-.69-.67-2.03-.67-1.03 0-2.11.38l-1.54-.44 1.2-7.02h7.14v1.05q0 .53-.33.86t-1.12.33zM63.435 75q0 1.89-.4 3.28-.41 1.4-1.12 2.31-.72.91-1.69 1.35-.98.45-2.11.45t-2.09-.45q-.97-.44-1.68-1.35t-1.11-2.31q-.4-1.39-.4-3.28 0-1.9.4-3.29t1.11-2.3 1.68-1.36q.96-.44 2.09-.44t2.11.44q.97.45 1.69 1.36.71.91 1.12 2.3.4 1.39.4 3.29m-2.55 0q0-1.57-.23-2.6t-.61-1.64q-.39-.61-.89-.86-.5-.24-1.04-.24-.53 0-1.02.24-.5.25-.88.86t-.6 1.64q-.23 1.03-.23 2.6t.23 2.6q.22 1.03.6 1.64t.88.85q.49.25 1.02.25.54 0 1.04-.25.5-.24.89-.85.38-.61.61-1.64t.23-2.6m18.43 3.92-1.31 1.29-3.39-3.39-3.42 3.41-1.31-1.29 3.42-3.43-3.26-3.26 1.3-1.3 3.26 3.26 3.24-3.24 1.32 1.3-3.25 3.25zm13.69 1.46h2.6v1.85h-8v-1.85h2.93v-8.43q0-.5.03-1.03l-2.08 1.74q-.18.14-.35.18-.18.03-.33 0-.16-.03-.28-.11-.12-.07-.18-.16l-.78-1.07 4.41-3.75h2.03zm8.42-10.37-.51 3.01q.48-.1.92-.15.44-.04.85-.04 1.14 0 2.01.34t1.46.94.89 1.41q.3.8.3 1.73 0 1.15-.4 2.1-.41.95-1.13 1.62-.72.68-1.7 1.05-.99.37-2.15.37-.68 0-1.29-.14t-1.14-.37q-.54-.24-.99-.55-.46-.3-.82-.64l.76-1.05q.24-.34.63-.34.25 0 .51.16t.6.35q.33.19.79.35.45.16 1.09.16.68 0 1.2-.22t.87-.62q.34-.39.52-.94.17-.54.17-1.18 0-1.18-.68-1.84-.69-.67-2.03-.67-1.03 0-2.11.38l-1.54-.44 1.2-7.02h7.14v1.05q0 .53-.33.86t-1.12.33zm18.13 4.99q0 1.89-.4 3.28-.41 1.4-1.12 2.31-.72.91-1.69 1.35-.98.45-2.11.45t-2.09-.45q-.97-.44-1.68-1.35t-1.11-2.31q-.4-1.39-.4-3.28 0-1.9.4-3.29t1.11-2.3 1.68-1.36q.96-.44 2.09-.44t2.11.44q.97.45 1.69 1.36.71.91 1.12 2.3.4 1.39.4 3.29m-2.55 0q0-1.57-.23-2.6t-.61-1.64q-.39-.61-.89-.86-.5-.24-1.04-.24-.53 0-1.02.24-.5.25-.88.86t-.6 1.64q-.23 1.03-.23 2.6t.23 2.6q.22 1.03.6 1.64t.88.85q.49.25 1.02.25.54 0 1.04-.25.5-.24.89-.85.38-.61.61-1.64t.23-2.6"/></svg>