<svg xmlns="http://www.w3.org/2000/svg" width="1920" height="1080" viewBox="0 0 1920 1080"><rect width="100%" height="100%" fill="#DDDDDD"/><path fill="#999999" d="M457.88 594.33h26.26v18.69h-80.8v-18.69h29.59v-85.14q0-5.05.3-10.4l-21 17.57q-1.82 1.42-3.59 1.77t-3.33.05q-1.57-.3-2.78-1.06t-1.82-1.67l-7.88-10.8 44.55-37.88h20.5zm72.21-83.52q0 12.22 6.32 18.63 6.31 6.42 17.92 6.42 6.06 0 10.81-1.92t7.98-5.26q3.23-3.33 4.9-7.87 1.66-4.55 1.66-9.8 0-5.96-1.81-10.66-1.82-4.69-5.15-7.92-3.34-3.24-7.93-4.95-4.6-1.72-10.05-1.72-5.66 0-10.2 1.87-4.55 1.87-7.78 5.2t-4.95 7.93q-1.72 4.59-1.72 10.05m-12.22 102.21 45.35-56.66q1.72-2.12 3.23-4.14 1.52-2.02 2.93-4.04-5.05 3.23-11.11 4.9-6.06 1.66-12.72 1.66-7.58 0-14.85-2.62-7.27-2.63-12.93-7.93-5.65-5.3-9.14-13.13-3.48-7.83-3.48-18.33 0-9.8 3.63-18.39 3.64-8.58 10.2-15.04 6.57-6.47 15.76-10.21 9.19-3.73 20.3-3.73 11.21 0 20.15 3.53 8.94 3.54 15.25 9.9t9.7 15.25q3.38 8.89 3.38 19.5 0 6.76-1.16 12.82t-3.28 11.67q-2.12 5.6-5.15 10.96-3.03 5.35-6.77 10.6l-33.43 47.67q-1.72 2.43-5.15 4.09-3.44 1.67-7.78 1.67zm157.66-23.23h37.48q4.04 0 6.41 2.27t2.37 6.01v14.95H621.6v-8.28q0-2.53 1.06-5.3 1.06-2.78 3.38-5L670.38 550q5.56-5.66 9.95-10.81t7.32-10.2 4.5-10.25q1.56-5.2 1.56-10.96 0-5.25-1.51-9.24-1.52-3.99-4.29-6.72-2.78-2.73-6.67-4.09t-8.74-1.36q-4.44 0-8.23 1.26t-6.71 3.53q-2.93 2.28-4.95 5.31t-3.03 6.66q-1.72 4.65-4.45 6.16-2.72 1.52-7.87.71l-13.13-2.32q1.51-10.51 5.85-18.44 4.35-7.92 10.86-13.23 6.51-5.3 14.95-7.98 8.43-2.67 18.13-2.67 10.1 0 18.48 2.98t14.34 8.43 9.29 13.13q3.34 7.68 3.34 17.07 0 8.08-2.38 14.95-2.37 6.87-6.36 13.13t-9.34 12.12-11.21 11.92l-32.93 33.63q4.75-1.41 9.45-2.17 4.69-.76 8.93-.76M843.19 540q0 19.09-4.09 33.18-4.09 14.08-11.31 23.28-7.22 9.19-17.07 13.68-9.84 4.5-21.26 4.5-11.41 0-21.16-4.5-9.74-4.49-16.91-13.68-7.18-9.2-11.22-23.28-4.04-14.09-4.04-33.18 0-19.19 4.04-33.23t11.22-23.23q7.17-9.19 16.91-13.69 9.75-4.49 21.16-4.49 11.42 0 21.26 4.49 9.85 4.5 17.07 13.69t11.31 23.23 4.09 33.23m-25.75 0q0-15.86-2.32-26.26-2.33-10.41-6.22-16.57-3.88-6.16-8.93-8.63-5.05-2.48-10.51-2.48-5.35 0-10.35 2.48-5 2.47-8.84 8.63t-6.11 16.57q-2.27 10.4-2.27 26.26 0 15.85 2.27 26.26 2.27 10.4 6.11 16.56t8.84 8.64q5 2.47 10.35 2.47 5.46 0 10.51-2.47 5.05-2.48 8.93-8.64 3.89-6.16 6.22-16.56 2.32-10.41 2.32-26.26m186.14 39.59-13.23 13.03-34.24-34.24-34.54 34.44-13.23-13.03 34.54-34.64-32.92-32.93 13.13-13.13 32.92 32.93 32.73-32.73 13.33 13.13-32.83 32.83zm138.27 14.74h26.26v18.69h-80.8v-18.69h29.59v-85.14q0-5.05.31-10.4l-21.01 17.57q-1.82 1.42-3.59 1.77-1.76.35-3.33.05-1.56-.3-2.78-1.06-1.21-.76-1.81-1.67l-7.88-10.8 44.54-37.88h20.5zm151-54.33q0 19.09-4.09 33.18-4.09 14.08-11.32 23.28-7.22 9.19-17.07 13.68-9.84 4.5-21.26 4.5-11.41 0-21.16-4.5-9.74-4.49-16.91-13.68-7.17-9.2-11.21-23.28-4.04-14.09-4.04-33.18 0-19.19 4.04-33.23t11.21-23.23 16.91-13.69q9.75-4.49 21.16-4.49 11.42 0 21.26 4.49 9.85 4.5 17.07 13.69 7.23 9.19 11.32 23.23t4.09 33.23m-25.76 0q0-15.86-2.32-26.26-2.32-10.41-6.21-16.57t-8.94-8.63q-5.05-2.48-10.51-2.48-5.35 0-10.35 2.48-5 2.47-8.84 8.63-3.83 6.16-6.11 16.57-2.27 10.4-2.27 26.26 0 15.85 2.27 26.26 2.28 10.4 6.11 16.56 3.84 6.16 8.84 8.64 5 2.47 10.35 2.47 5.46 0 10.51-2.47 5.05-2.48 8.94-8.64t6.21-16.56q2.32-10.41 2.32-26.26m89.39 55.14q6.16 0 10.8-1.76 4.65-1.77 7.83-4.9t4.8-7.48q1.61-4.34 1.61-9.39 0-12.02-6.66-18.18-6.67-6.16-18.38-6.16-11.72 0-18.39 6.16-6.66 6.16-6.66 18.18 0 5.05 1.61 9.39 1.62 4.35 4.8 7.48t7.83 4.9q4.65 1.76 10.81 1.76m0-111q-5.56 0-9.6 1.72t-6.72 4.6q-2.67 2.87-3.93 6.61-1.27 3.74-1.27 7.88 0 4.34 1.06 8.43t3.59 7.28q2.52 3.18 6.67 5.1 4.14 1.92 10.2 1.92t10.2-1.92 6.66-5.1q2.53-3.19 3.59-7.28t1.06-8.43q0-4.14-1.31-7.88-1.32-3.74-3.94-6.61-2.63-2.88-6.67-4.6t-9.59-1.72m24.64 52.73q13.33 4.34 19.7 13.28 6.36 8.94 6.36 21.86 0 9.7-3.69 17.58-3.68 7.88-10.35 13.43-6.67 5.56-16.01 8.59t-20.65 3.03q-11.32 0-20.66-3.03t-16.01-8.59q-6.66-5.55-10.35-13.43t-3.69-17.58q0-12.92 6.37-21.86 6.36-8.94 19.69-13.28-10.6-4.45-15.91-12.63-5.3-8.18-5.3-19.69 0-8.29 3.39-15.46 3.38-7.17 9.44-12.47t14.49-8.28q8.44-2.98 18.54-2.98t18.53 2.98 14.49 8.28 9.45 12.47q3.38 7.17 3.38 15.46 0 11.51-5.3 19.69t-15.91 12.63m146.05 3.13q0 19.09-4.09 33.18-4.09 14.08-11.32 23.28-7.22 9.19-17.07 13.68-9.84 4.5-21.26 4.5-11.41 0-21.16-4.5-9.74-4.49-16.91-13.68-7.17-9.2-11.21-23.28-4.04-14.09-4.04-33.18 0-19.19 4.04-33.23t11.21-23.23 16.91-13.69q9.75-4.49 21.16-4.49 11.42 0 21.26 4.49 9.85 4.5 17.07 13.69 7.23 9.19 11.32 23.23t4.09 33.23m-25.76 0q0-15.86-2.32-26.26-2.32-10.41-6.21-16.57t-8.94-8.63q-5.05-2.48-10.51-2.48-5.35 0-10.35 2.48-5 2.47-8.84 8.63-3.83 6.16-6.11 16.57-2.27 10.4-2.27 26.26 0 15.85 2.27 26.26 2.28 10.4 6.11 16.56 3.84 6.16 8.84 8.64 5 2.47 10.35 2.47 5.46 0 10.51-2.47 5.05-2.48 8.94-8.64t6.21-16.56q2.32-10.41 2.32-26.26"/></svg>