<svg xmlns="http://www.w3.org/2000/svg" width="2048" height="1080" viewBox="0 0 2048 1080"><rect width="100%" height="100%" fill="#DDDDDD"/><path fill="#999999" d="M472.225 593.245h40.07q4.32 0 6.86 2.43t2.54 6.43v15.98h-107.14v-8.86q0-2.7 1.13-5.67 1.14-2.97 3.62-5.34l47.41-47.52q5.94-6.05 10.64-11.56t7.83-10.91 4.81-10.96q1.67-5.56 1.67-11.72 0-5.61-1.62-9.88-1.62-4.26-4.59-7.18t-7.13-4.37q-4.15-1.46-9.34-1.46-4.75 0-8.8 1.35t-7.18 3.78-5.29 5.67-3.24 7.13q-1.84 4.96-4.76 6.58-2.91 1.62-8.42.76l-14.04-2.48q1.62-11.24 6.26-19.71 4.65-8.48 11.61-14.15 6.97-5.67 15.99-8.53 9.02-2.87 19.38-2.87 10.8 0 19.77 3.19 8.96 3.19 15.33 9.02 6.38 5.83 9.94 14.04t3.56 18.25q0 8.64-2.53 15.98-2.54 7.35-6.81 14.04-4.26 6.7-9.99 12.96-5.72 6.27-11.99 12.75l-35.2 35.96q5.07-1.51 10.09-2.32 5.03-.81 9.56-.81m179.28-53.24q0 20.41-4.37 35.47-4.38 15.07-12.1 24.9t-18.25 14.63q-10.53 4.81-22.73 4.81-12.21 0-22.63-4.81-10.42-4.8-18.09-14.63t-11.99-24.9q-4.32-15.06-4.32-35.47 0-20.52 4.32-35.54 4.32-15.01 11.99-24.84 7.67-9.82 18.09-14.63t22.63-4.81q12.2 0 22.73 4.81t18.25 14.63q7.72 9.83 12.1 24.84 4.37 15.02 4.37 35.54m-27.54 0q0-16.96-2.48-28.08-2.49-11.13-6.64-17.72-4.16-6.58-9.56-9.23t-11.23-2.65q-5.73 0-11.07 2.65-5.35 2.65-9.45 9.23-4.11 6.59-6.54 17.72-2.43 11.12-2.43 28.08 0 16.95 2.43 28.08 2.43 11.12 6.54 17.71 4.1 6.59 9.45 9.23 5.34 2.65 11.07 2.65 5.83 0 11.23-2.65 5.4-2.64 9.56-9.23 4.15-6.59 6.64-17.71 2.48-11.13 2.48-28.08m62.32 19.22h47.52v-51.08q0-7.24.97-15.99zm70.74 0h19.65v15.44q0 2.16-1.4 3.73t-4 1.57h-14.25v38.12h-23.22v-38.12h-65.88q-2.7 0-4.75-1.68-2.06-1.67-2.6-4.16l-2.8-13.5 73.98-98.82h25.27zm87.8 39.74q6.59 0 11.56-1.89t8.37-5.23q3.4-3.35 5.13-8 1.73-4.64 1.73-10.04 0-12.85-7.13-19.44t-19.66-6.59-19.65 6.59q-7.13 6.59-7.13 19.44 0 5.4 1.73 10.04 1.72 4.65 5.13 8 3.4 3.34 8.37 5.23 4.96 1.89 11.55 1.89m0-118.69q-5.94 0-10.26 1.84-4.32 1.83-7.18 4.91t-4.21 7.08q-1.35 3.99-1.35 8.42 0 4.64 1.13 9.02 1.14 4.37 3.84 7.77 2.7 3.41 7.12 5.46 4.43 2.05 10.91 2.05t10.91-2.05 7.13-5.46q2.7-3.4 3.83-7.77 1.14-4.38 1.14-9.02 0-4.43-1.41-8.42-1.4-4-4.21-7.08t-7.13-4.91q-4.32-1.84-10.26-1.84m26.35 56.38q14.26 4.64 21.06 14.2 6.81 9.56 6.81 23.38 0 10.37-3.94 18.79-3.95 8.43-11.07 14.37-7.13 5.94-17.12 9.18t-22.09 3.24q-12.09 0-22.08-3.24t-17.12-9.18-11.07-14.37q-3.94-8.42-3.94-18.79 0-13.82 6.8-23.38t21.06-14.2q-11.34-4.75-17.01-13.5t-5.67-21.06q0-8.86 3.62-16.53 3.62-7.66 10.1-13.33t15.49-8.86q9.02-3.19 19.82-3.19t19.82 3.19 15.5 8.86 10.1 13.33q3.61 7.67 3.61 16.53 0 12.31-5.67 21.06t-17.01 13.5m202.4 45.68-14.15 13.93-36.61-36.61-36.94 36.83-14.15-13.93 36.94-37.05-35.21-35.2 14.04-14.04 35.21 35.2 34.99-34.99 14.26 14.04-35.1 35.1zm147.85 15.77h28.08v19.98h-86.4v-19.98h31.64v-91.04q0-5.4.33-11.13l-22.47 18.79q-1.94 1.52-3.83 1.89-1.89.38-3.57.06-1.67-.33-2.97-1.14-1.29-.81-1.94-1.78l-8.42-11.55 47.62-40.5h21.93zm161.46-58.1q0 20.41-4.38 35.47-4.37 15.07-12.09 24.9t-18.25 14.63q-10.53 4.81-22.74 4.81-12.2 0-22.62-4.81-10.43-4.8-18.09-14.63-7.67-9.83-11.99-24.9-4.32-15.06-4.32-35.47 0-20.52 4.32-35.54 4.32-15.01 11.99-24.84 7.66-9.82 18.09-14.63 10.42-4.81 22.62-4.81 12.21 0 22.74 4.81t18.25 14.63q7.72 9.83 12.09 24.84 4.38 15.02 4.38 35.54m-27.54 0q0-16.96-2.49-28.08-2.48-11.13-6.64-17.72-4.16-6.58-9.56-9.23t-11.23-2.65q-5.72 0-11.07 2.65-5.34 2.65-9.45 9.23-4.1 6.59-6.53 17.72-2.43 11.12-2.43 28.08 0 16.95 2.43 28.08 2.43 11.12 6.53 17.71 4.11 6.59 9.45 9.23 5.35 2.65 11.07 2.65 5.83 0 11.23-2.65 5.4-2.64 9.56-9.23t6.64-17.71q2.49-11.13 2.49-28.08m95.58 58.96q6.59 0 11.55-1.89 4.97-1.89 8.37-5.23 3.41-3.35 5.13-8 1.73-4.64 1.73-10.04 0-12.85-7.13-19.44-7.12-6.59-19.65-6.59t-19.66 6.59-7.13 19.44q0 5.4 1.73 10.04 1.73 4.65 5.13 8 3.4 3.34 8.37 5.23t11.56 1.89m0-118.69q-5.94 0-10.26 1.84-4.32 1.83-7.18 4.91-2.87 3.08-4.22 7.08-1.35 3.99-1.35 8.42 0 4.64 1.14 9.02 1.13 4.37 3.83 7.77 2.7 3.41 7.13 5.46t10.91 2.05 10.91-2.05q4.42-2.05 7.12-5.46 2.7-3.4 3.84-7.77 1.13-4.38 1.13-9.02 0-4.43-1.4-8.42-1.41-4-4.21-7.08-2.81-3.08-7.13-4.91-4.32-1.84-10.26-1.84m26.35 56.38q14.26 4.64 21.06 14.2t6.8 23.38q0 10.37-3.94 18.79-3.94 8.43-11.07 14.37t-17.12 9.18-22.08 3.24q-12.1 0-22.09-3.24t-17.12-9.18q-7.12-5.94-11.07-14.37-3.94-8.42-3.94-18.79 0-13.82 6.81-23.38 6.8-9.56 21.06-14.2-11.34-4.75-17.01-13.5t-5.67-21.06q0-8.86 3.61-16.53 3.62-7.66 10.1-13.33t15.5-8.86 19.82-3.19 19.82 3.19q9.01 3.19 15.49 8.86t10.1 13.33q3.62 7.67 3.62 16.53 0 12.31-5.67 21.06t-17.01 13.5m156.17 3.35q0 20.41-4.38 35.47-4.37 15.07-12.09 24.9t-18.25 14.63q-10.53 4.81-22.74 4.81-12.2 0-22.62-4.81-10.43-4.8-18.09-14.63-7.67-9.83-11.99-24.9-4.32-15.06-4.32-35.47 0-20.52 4.32-35.54 4.32-15.01 11.99-24.84 7.66-9.82 18.09-14.63 10.42-4.81 22.62-4.81 12.21 0 22.74 4.81t18.25 14.63q7.72 9.83 12.09 24.84 4.38 15.02 4.38 35.54m-27.54 0q0-16.96-2.49-28.08-2.48-11.13-6.64-17.72-4.16-6.58-9.56-9.23t-11.23-2.65q-5.72 0-11.07 2.65-5.34 2.65-9.45 9.23-4.1 6.59-6.53 17.72-2.43 11.12-2.43 28.08 0 16.95 2.43 28.08 2.43 11.12 6.53 17.71 4.11 6.59 9.45 9.23 5.35 2.65 11.07 2.65 5.83 0 11.23-2.65 5.4-2.64 9.56-9.23t6.64-17.71q2.49-11.13 2.49-28.08"/></svg>