<svg xmlns="http://www.w3.org/2000/svg" width="768" height="150" viewBox="0 0 768 150"><rect width="100%" height="100%" fill="#DDDDDD"/><path fill="#999999" d="M216.205 47.88h37.46v4.02q0 1.8-.37 2.9-.38 1.11-.75 1.86l-20.55 42.3q-.64 1.31-1.8 2.23t-3.11.92h-6.71l20.96-41.44q.71-1.27 1.4-2.34.7-1.07 1.56-2.04h-25.95q-.86 0-1.5-.64t-.64-1.5zm75.68 0-16.09 19.69-1.87 2.33q1.57-.79 3.39-1.22t3.92-.43q3.07 0 5.98 1.01t5.12 3.06q2.21 2.04 3.56 5.08 1.35 3.03 1.35 7.08 0 3.79-1.39 7.11-1.38 3.32-3.9 5.8-2.51 2.47-6.05 3.9-3.55 1.42-7.82 1.42-4.35 0-7.8-1.39-3.45-1.38-5.89-3.88-2.44-2.49-3.73-6-1.29-3.5-1.29-7.78 0-3.82 1.55-7.86 1.56-4.03 4.82-8.38l12.94-17.36q.67-.9 1.97-1.54 1.29-.64 2.98-.64zm-13.99 47.26q2.21 0 4.07-.75 1.85-.75 3.19-2.1 1.33-1.35 2.08-3.17t.75-3.96q0-2.32-.71-4.18-.72-1.86-2.03-3.15t-3.15-1.97-4.05-.68-4.01.75-3.08 2.09q-1.27 1.33-1.98 3.15-.72 1.81-.72 3.92 0 2.25.62 4.1.62 1.86 1.84 3.17t3.02 2.04q1.8.74 4.16.74m43.58.33q2.28 0 4.01-.65 1.72-.66 2.9-1.82 1.18-1.17 1.79-2.78.6-1.61.6-3.49 0-4.46-2.48-6.75-2.48-2.28-6.82-2.28-4.35 0-6.83 2.28-2.47 2.29-2.47 6.75 0 1.88.6 3.49t1.78 2.78q1.18 1.16 2.9 1.82 1.73.65 4.02.65m0-41.21q-2.07 0-3.57.64t-2.49 1.7q-.99 1.07-1.46 2.46t-.47 2.92q0 1.62.39 3.14.4 1.51 1.33 2.7.94 1.18 2.48 1.89t3.79.71 3.78-.71q1.54-.71 2.48-1.89.94-1.19 1.33-2.7.39-1.52.39-3.14 0-1.53-.48-2.92-.49-1.39-1.47-2.46-.97-1.06-2.47-1.7t-3.56-.64m9.15 19.58q4.95 1.61 7.31 4.93t2.36 8.12q0 3.59-1.37 6.52t-3.84 4.99q-2.48 2.06-5.95 3.18-3.46 1.13-7.66 1.13t-7.67-1.13q-3.47-1.12-5.95-3.18-2.47-2.06-3.84-4.99t-1.37-6.52q0-4.8 2.36-8.12 2.37-3.32 7.31-4.93-3.93-1.65-5.9-4.69t-1.97-7.31q0-3.08 1.26-5.74 1.25-2.66 3.5-4.63t5.38-3.08q3.14-1.1 6.89-1.1t6.88 1.1q3.13 1.11 5.38 3.08t3.5 4.63q1.26 2.66 1.26 5.74 0 4.27-1.97 7.31t-5.9 4.69m70.27 15.86-4.91 4.84-12.71-12.72-12.83 12.79-4.91-4.84 12.82-12.86-12.22-12.22 4.87-4.88 12.23 12.23 12.15-12.16 4.95 4.88-12.19 12.19zm51.34 5.47h9.75v6.94h-30v-6.94h10.99V63.56q0-1.87.11-3.86l-7.8 6.52q-.68.53-1.33.66-.66.13-1.24.02t-1.03-.4q-.45-.28-.68-.62l-2.92-4.01 16.53-14.06h7.62zm31.57-38.88-1.91 11.28q1.8-.37 3.45-.54t3.19-.17q4.27 0 7.54 1.27 3.26 1.28 5.47 3.53t3.34 5.27q1.12 3.02 1.12 6.5 0 4.32-1.52 7.88t-4.22 6.09q-2.69 2.54-6.39 3.92-3.69 1.39-8.04 1.39-2.55 0-4.84-.53-2.29-.52-4.29-1.4-2.01-.88-3.72-2.03-1.7-1.14-3.05-2.41l2.85-3.94q.9-1.28 2.36-1.28.94 0 1.91.6.98.6 2.23 1.32 1.26.71 2.97 1.31 1.7.6 4.1.6 2.55 0 4.5-.83 1.95-.82 3.25-2.3 1.29-1.49 1.95-3.53.65-2.04.65-4.44 0-4.43-2.57-6.92-2.56-2.5-7.59-2.5-3.86 0-7.91 1.43l-5.78-1.65 4.5-26.33h26.78v3.94q0 1.99-1.24 3.23t-4.2 1.24zM551.795 75q0 7.09-1.52 12.32t-4.2 8.64-6.34 5.08q-3.65 1.67-7.89 1.67t-7.86-1.67-6.28-5.08-4.16-8.64-1.5-12.32q0-7.13 1.5-12.34t4.16-8.62q2.66-3.42 6.28-5.09 3.62-1.66 7.86-1.66t7.89 1.66q3.66 1.67 6.34 5.09 2.68 3.41 4.2 8.62t1.52 12.34m-9.56 0q0-5.89-.87-9.75-.86-3.87-2.3-6.15-1.45-2.29-3.32-3.21-1.88-.92-3.9-.92-1.99 0-3.84.92-1.86.92-3.28 3.21-1.43 2.28-2.27 6.15-.85 3.86-.85 9.75t.85 9.75q.84 3.86 2.27 6.15 1.42 2.29 3.28 3.2 1.85.92 3.84.92 2.02 0 3.9-.92 1.87-.91 3.32-3.2 1.44-2.29 2.3-6.15.87-3.86.87-9.75"/></svg>